<?xml version="1.0" encoding="UTF-8" standalone="no"?>
<svg
   viewBox="0 0 36 36"
   width="64"
   height="64"
   stroke-width="1"
   version="1.1"
   id="svg2"
   sodipodi:docname="star_used.svg"
   inkscape:version="1.3.1 (9b9bdc1480, 2023-11-25, custom)"
   xmlns:inkscape="http://www.inkscape.org/namespaces/inkscape"
   xmlns:sodipodi="http://sodipodi.sourceforge.net/DTD/sodipodi-0.dtd"
   xmlns="http://www.w3.org/2000/svg"
   xmlns:svg="http://www.w3.org/2000/svg">
  <defs
     id="defs2" />
  <sodipodi:namedview
     id="namedview2"
     pagecolor="#ffffff"
     bordercolor="#000000"
     borderopacity="0.25"
     inkscape:showpageshadow="2"
     inkscape:pageopacity="0.0"
     inkscape:pagecheckerboard="0"
     inkscape:deskcolor="#d1d1d1"
     inkscape:zoom="12.5"
     inkscape:cx="32"
     inkscape:cy="32"
     inkscape:window-width="1920"
     inkscape:window-height="997"
     inkscape:window-x="0"
     inkscape:window-y="0"
     inkscape:window-maximized="1"
     inkscape:current-layer="svg2" />
  <path
     fill="#1a1a1a"
     d="M34 16.78a2.22 2.22 0 0 0-1.29-4l-9-.34a.23.23 0 0 1-.2-.15l-3.11-8.4a2.22 2.22 0 0 0-4.17 0l-3.1 8.43a.23.23 0 0 1-.2.15l-9 .34a2.22 2.22 0 0 0-1.29 4l7.06 5.55a.23.23 0 0 1 .08.24l-2.43 8.61a2.22 2.22 0 0 0 3.38 2.45l7.46-5a.22.22 0 0 1 .25 0l7.46 5a2.2 2.2 0 0 0 2.55 0a2.2 2.2 0 0 0 .83-2.4l-2.45-8.64a.22.22 0 0 1 .08-.24Z"
     class="clr-i-solid clr-i-solid-path-1"
     id="path1"
     style="fill:#f0a800;fill-opacity:1" />
  <path
     fill="none"
     d="M0 0h36v36H0z"
     id="path2" />
</svg>
